<?xml version="1.0" standalone="no"?>
<!DOCTYPE svg PUBLIC "-//W3C//DTD SVG 20010904//EN"
 "http://www.w3.org/TR/2001/REC-SVG-20010904/DTD/svg10.dtd">
<svg version="1.0" xmlns="http://www.w3.org/2000/svg"
 width="165.000000pt" height="165.000000pt" viewBox="0 0 165.000000 165.000000"
 preserveAspectRatio="xMidYMid meet">

<g transform="translate(0.000000,165.000000) scale(0.100000,-0.100000)"
fill="#000000" stroke="none">
<path d="M1240 1393 c-8 -3 -105 -95 -216 -205 l-200 -199 -80 81 c-43 45 -92
88 -107 96 -52 27 -107 -7 -107 -66 0 -33 11 -47 133 -168 110 -108 139 -132
163 -132 24 0 66 38 271 243 229 228 243 245 243 279 0 54 -49 89 -100 71z"/>
<path d="M782 547 c-29 -31 -28 -61 5 -86 60 -48 133 30 79 84 -31 31 -56 32
-84 2z"/>
<path d="M780 150 c0 -133 1 -140 20 -140 17 0 20 7 20 48 0 58 18 96 48 100
39 6 52 -15 52 -84 0 -57 2 -64 20 -64 18 0 20 7 20 78 0 64 -4 82 -18 95 -24
22 -80 22 -104 0 -17 -15 -18 -14 -18 45 0 55 -2 62 -20 62 -19 0 -20 -7 -20
-140z"/>
<path d="M1420 150 c0 -133 1 -140 20 -140 17 0 20 7 20 48 l0 47 40 -46 c27
-31 49 -48 70 -51 34 -5 32 0 -29 65 l-35 37 44 45 44 45 -29 0 c-23 0 -39
-10 -67 -42 l-37 -43 -1 88 c0 80 -2 87 -20 87 -19 0 -20 -7 -20 -140z"/>
<path d="M552 255 c-54 -45 -62 -143 -17 -211 19 -30 82 -49 130 -40 40 8 85
45 85 71 0 23 -36 18 -64 -10 -30 -30 -65 -32 -99 -5 -28 23 -43 74 -33 115
16 65 96 89 134 40 22 -28 62 -34 62 -9 0 8 -13 29 -29 45 -25 25 -37 29 -84
29 -45 0 -61 -5 -85 -25z"/>
<path d="M1016 174 c-39 -40 -37 -105 4 -146 27 -27 36 -30 71 -25 38 5 79 30
79 49 0 11 -48 10 -55 -2 -15 -24 -85 3 -85 33 0 4 34 7 75 7 69 0 75 2 75 21
0 52 -39 88 -96 89 -32 0 -48 -6 -68 -26z m112 -38 c3 -13 -6 -16 -47 -16 -42
0 -49 3 -44 16 13 35 84 36 91 0z"/>
<path d="M1239 187 c-43 -33 -52 -108 -19 -150 22 -28 74 -43 109 -32 23 7 61
43 61 57 0 14 -43 8 -62 -9 -14 -13 -25 -15 -46 -7 -22 8 -28 16 -30 47 -2 21
2 45 9 53 15 18 53 18 69 -1 14 -17 60 -20 60 -5 0 6 -11 22 -25 35 -18 19
-35 25 -67 25 -24 0 -50 -6 -59 -13z"/>
</g>
</svg>
